<svg width="24" height="25" viewBox="0 0 24 25" fill="none" xmlns="http://www.w3.org/2000/svg">
<g clip-path="url(#clip0_314_1316)">
<path d="M18.7278 0.5H5.93858C5.15986 0.502231 4.41365 0.821086 3.863 1.38689C3.31236 1.9527 3.00205 2.71946 2.99988 3.51963V21.4804C3.00205 22.2805 3.31236 23.0473 3.863 23.6131C4.41365 24.1789 5.15986 24.4978 5.93858 24.5H18.7278C19.5072 24.5 20.2547 24.1819 20.8058 23.6156C21.3569 23.0493 21.6665 22.2812 21.6665 21.4804V3.51963C21.6665 2.71877 21.3569 1.95072 20.8058 1.38443C20.2547 0.818138 19.5072 0.5 18.7278 0.5ZM20.4911 21.4804C20.4911 21.9609 20.3053 22.4217 19.9746 22.7615C19.644 23.1013 19.1955 23.2921 18.7278 23.2921H5.93858C5.47095 23.2921 5.02247 23.1013 4.6918 22.7615C4.36113 22.4217 4.17536 21.9609 4.17536 21.4804V5.86286H20.4911V21.4804Z" fill="white"/>
<path d="M6.60551 9.64849C6.44492 9.64849 6.29091 9.58799 6.17735 9.4803C6.06379 9.37261 6 9.22655 6 9.07425C6 8.92195 6.06379 8.77589 6.17735 8.66819C6.29091 8.5605 6.44492 8.5 6.60551 8.5H17.3945C17.5551 8.5 17.7091 8.5605 17.8227 8.66819C17.9362 8.77589 18 8.92195 18 9.07425C18 9.22655 17.9362 9.37261 17.8227 9.4803C17.7091 9.58799 17.5551 9.64849 17.3945 9.64849H6.60551ZM6.60551 13.094C6.44492 13.094 6.29091 13.0335 6.17735 12.9258C6.06379 12.8181 6 12.672 6 12.5197C6 12.3674 6.06379 12.2214 6.17735 12.1137C6.29091 12.006 6.44492 11.9455 6.60551 11.9455H14.4771C14.6377 11.9455 14.7917 12.006 14.9053 12.1137C15.0189 12.2214 15.0827 12.3674 15.0827 12.5197C15.0827 12.672 15.0189 12.8181 14.9053 12.9258C14.7917 13.0335 14.6377 13.094 14.4771 13.094H6.60551ZM6.6261 19.8333C6.46551 19.8333 6.31149 19.7728 6.19794 19.6651C6.08438 19.5574 6.02059 19.4114 6.02059 19.2591C6.02059 19.1068 6.08438 18.9607 6.19794 18.853C6.31149 18.7453 6.46551 18.6848 6.6261 18.6848H10.5631C10.7237 18.6848 10.8777 18.7453 10.9913 18.853C11.1048 18.9607 11.1686 19.1068 11.1686 19.2591C11.1686 19.4114 11.1048 19.5574 10.9913 19.6651C10.8777 19.7728 10.7237 19.8333 10.5631 19.8333H6.6261Z" fill="white"/>
</g>
<defs>
<clipPath id="clip0_314_1316">
<rect width="24" height="24" fill="white" transform="translate(0 0.5)"/>
</clipPath>
</defs>
</svg>
