<svg width="24" height="24" viewBox="0 0 24 24" fill="none" xmlns="http://www.w3.org/2000/svg">
<path d="M8.66749 7.63462C8.49073 7.63462 8.3212 7.70452 8.19621 7.82894C8.07121 7.95336 8.00099 8.12212 8.00099 8.29808C8.00099 8.47404 8.07121 8.64279 8.19621 8.76722C8.3212 8.89164 8.49073 8.96154 8.66749 8.96154H15.3325C15.5093 8.96154 15.6788 8.89164 15.8038 8.76722C15.9288 8.64279 15.999 8.47404 15.999 8.29808C15.999 8.12212 15.9288 7.95336 15.8038 7.82894C15.6788 7.70452 15.5093 7.63462 15.3325 7.63462H8.66749ZM6.66799 10.9519C6.66799 10.776 6.73821 10.6072 6.86321 10.4828C6.9882 10.3584 7.15773 10.2885 7.33449 10.2885H16.6655C16.8423 10.2885 17.0118 10.3584 17.1368 10.4828C17.2618 10.6072 17.332 10.776 17.332 10.9519C17.332 11.1279 17.2618 11.2966 17.1368 11.4211C17.0118 11.5455 16.8423 11.6154 16.6655 11.6154H7.33449C7.15773 11.6154 6.9882 11.5455 6.86321 11.4211C6.73821 11.2966 6.66799 11.1279 6.66799 10.9519ZM8.66749 12.9423C8.49073 12.9423 8.3212 13.0122 8.19621 13.1366C8.07121 13.2611 8.00099 13.4298 8.00099 13.6058C8.00099 13.7817 8.07121 13.9505 8.19621 14.0749C8.3212 14.1993 8.49073 14.2692 8.66749 14.2692H15.3325C15.5093 14.2692 15.6788 14.1993 15.8038 14.0749C15.9288 13.9505 15.999 13.7817 15.999 13.6058C15.999 13.4298 15.9288 13.2611 15.8038 13.1366C15.6788 13.0122 15.5093 12.9423 15.3325 12.9423H8.66749ZM2.00249 1C1.53028 0.999302 1.07307 1.16498 0.711825 1.46769C0.35058 1.7704 0.108614 2.19061 0.0287847 2.65389C-0.0510446 3.11718 0.0364141 3.59363 0.275671 3.99888C0.514927 4.40412 0.890541 4.712 1.33598 4.86798V14.2692C1.33598 15.325 1.75731 16.3375 2.50727 17.0841C3.25723 17.8306 4.27439 18.25 5.33499 18.25H11.3335V20.9038H7.33449C7.15773 20.9038 6.9882 20.9737 6.86321 21.0982C6.73821 21.2226 6.66799 21.3913 6.66799 21.5673C6.66799 21.7433 6.73821 21.912 6.86321 22.0364C6.9882 22.1609 7.15773 22.2308 7.33449 22.2308H16.6655C16.8423 22.2308 17.0118 22.1609 17.1368 22.0364C17.2618 21.912 17.332 21.7433 17.332 21.5673C17.332 21.3913 17.2618 21.2226 17.1368 21.0982C17.0118 20.9737 16.8423 20.9038 16.6655 20.9038H12.6665V18.25H18.665C19.7256 18.25 20.7428 17.8306 21.4927 17.0841C22.2427 16.3375 22.664 15.325 22.664 14.2692V4.86798C23.1095 4.712 23.4851 4.40412 23.7243 3.99888C23.9636 3.59363 24.051 3.11718 23.9712 2.65389C23.8914 2.19061 23.6494 1.7704 23.2882 1.46769C22.9269 1.16498 22.4697 0.999302 21.9975 1H2.00249ZM2.66899 14.2692V4.98077H21.331V14.2692C21.331 14.9731 21.0501 15.6481 20.5502 16.1458C20.0502 16.6435 19.3721 16.9231 18.665 16.9231H5.33499C4.62792 16.9231 3.94981 16.6435 3.44984 16.1458C2.94987 15.6481 2.66899 14.9731 2.66899 14.2692Z" fill="white"/>
</svg>
